:SAMPLES-PER-SECOND 30
:FULLY-SPECIFIED
:DEGREES
160
root  11.4025 40.0074 -2.52449 -47.3327 -78.7375 41.5493
RightUpLeg  -7.60912 -17.2076 -32.9535
RightLeg  27.0196 9.01705 4.81522
RightFoot  26.4331 -10.2615 29.9417
RightToes  -5.28226e-011 1.30204e-014 -6.03759e-014
Spine  31.1359 8.80272 16.0443
Spine1  -9.68366 13.5856 -8.36113
HEad  -2.89319 -29.0626 -18.3165
LeftShoulder1  -1.06737 9.83744 -9.54821
LeftArm  14.4744 9.1832 -73.7796
LeftForeArm  -44.0947 -30.8828 -8.639
LeftHand  0.616845 7.48849 32.8504
RightShoulder  2.13248 3.759 23.2104
RightArm  -5.7099 -49.4718 3.62518
RightForeArm  -49.1425 1.70076 5.3353
RightHand  -0.509252 -2.79609 -22.4861
LeftUpLeg  -26.0032 3.06684 31.2383
LeftLeg  42.5807 -2.44657 -2.0241
LeftFoot  30.6213 10.9432 -28.5764
LeftToes  -2.75829e-010 5.07641e-011 -5.51782e-011
161
root  11.2828 41.3559 -2.84334 -49.3039 -77.6625 44.4368
RightUpLeg  -5.95455 -21.8308 -33.9765
RightLeg  20.3696 5.20037 2.02192
RightFoot  36.4741 -12.2872 27.9498
RightToes  -5.28226e-011 1.30204e-014 -6.03759e-014
Spine  29.9419 8.60192 15.3537
Spine1  -8.94295 13.1392 -8.85397
HEad  -3.13764 -29.4362 -15.6575
LeftShoulder1  -1.3092 12.886 -6.03754
LeftArm  14.608 10.1772 -76.824
LeftForeArm  -41.6738 -32.127 -8.91557
LeftHand  0.411558 6.86213 31.2872
RightShoulder  2.01689 4.00256 20.5432
RightArm  -8.79646 -49.9662 6.00027
RightForeArm  -46.0382 3.94159 4.80079
RightHand  -0.538126 -2.4996 -21.3386
LeftUpLeg  -25.4386 -0.0115301 31.4135
LeftLeg  37.6169 -2.6545 -1.83858
LeftFoot  29.754 9.12829 -24.5629
LeftToes  -2.75829e-010 5.07641e-011 -5.51782e-011
162
root  11.1424 42.3878 -3.18383 -46.009 -75.4896 42.9465
RightUpLeg  -4.12924 -23.8851 -34.5715
RightLeg  14.1306 -3.7855 -1.20232
RightFoot  41.6837 -10.6804 21.852
RightToes  -5.28226e-011 1.30204e-014 -6.03759e-014
Spine  28.9106 7.51271 16.6059
Spine1  -10.6345 12.1908 -12.7051
HEad  -0.596775 -31.982 -14.0609
LeftShoulder1  -1.4026 14.2735 -5.0137
LeftArm  19.6561 6.48225 -76.1804
LeftForeArm  -42.986 -28.5768 -7.90519
LeftHand  0.295776 6.52259 29.5446
RightShoulder  2.14398 4.45912 20.5804
RightArm  -10.4789 -51.9305 7.15903
RightForeArm  -44.628 5.44031 4.19416
RightHand  -0.574836 -2.19106 -20.6237
LeftUpLeg  -26.7329 -3.64044 31.0015
LeftLeg  32.6687 -2.70412 -1.51323
LeftFoot  28.2073 7.90926 -22.2754
LeftToes  -2.75829e-010 5.07641e-011 -5.51782e-011
163
root  11.0062 42.9235 -3.55424 -41.3889 -72.992 40.2519
RightUpLeg  -3.0224 -21.4189 -34.0485
RightLeg  9.05045 -9.28775 -2.34952
RightFoot  44.8159 -7.62077 14.8516
RightToes  -5.28226e-011 1.30204e-014 -6.03759e-014
Spine  27.7972 6.78423 19.0822
Spine1  -12.1171 11.8094 -17.7937
HEad  2.97688 -35.7885 -14.5694
LeftShoulder1  -1.41695 13.7081 -5.9955
LeftArm  26.8355 -0.721245 -74.1448
LeftForeArm  -48.5574 -22.7938 -7.81891
LeftHand  0.574175 7.5425 30.0013
RightShoulder  2.32127 4.85365 21.5327
RightArm  -8.50539 -54.1912 6.25033
RightForeArm  -47.3486 4.58897 4.13748
RightHand  -0.532238 -2.33514 -19.9593
LeftUpLeg  -29.587 -6.85548 30.4971
LeftLeg  30.4383 -3.59795 -1.94779
LeftFoot  26.1185 7.14858 -21.3791
LeftToes  -2.75829e-010 5.07641e-011 -5.51782e-011
164
root  10.9102 42.8951 -3.94105 -37.7449 -70.3736 37.6354
RightUpLeg  -2.27827 -19.4507 -32.9185
RightLeg  6.45009 -7.98496 -3.12539
RightFoot  45.8692 -6.10603 11.7872
RightToes  -5.28226e-011 1.30204e-014 -6.03759e-014
Spine  26.8614 6.80414 20.5751
Spine1  -11.7726 12.0194 -19.8157
HEad  3.80072 -39.0666 -14.8895
LeftShoulder1  -1.4328 13.7501 -6.09367
LeftArm  26.2002 -8.11493 -74.9493
LeftForeArm  -47.065 -17.9217 -11.1143
LeftHand  0.9632 8.84279 31.4734
RightShoulder  2.0237 4.41326 19.0285
RightArm  -7.69592 -55.0358 7.74598
RightForeArm  -50.5855 1.35824 4.13616
RightHand  -0.398222 -3.01242 -19.0645
LeftUpLeg  -32.6436 -7.08743 28.8509
LeftLeg  30.7231 -4.84175 -2.76454
LeftFoot  26.1678 7.17006 -21.4041
LeftToes  -2.75829e-010 5.07641e-011 -5.51782e-011
165
root  10.9009 42.4081 -4.37648 -36.3246 -68.2009 36.2819
RightUpLeg  -2.0474 -18.3183 -31.9496
RightLeg  7.9729 -9.39276 -4.39361
RightFoot  41.1584 -5.88015 12.5277
RightToes  -5.28226e-011 1.30204e-014 -6.03759e-014
Spine  26.9626 6.80008 20.4455
Spine1  -11.1099 11.9433 -18.5612
HEad  0.825207 -40.8115 -13.1545
LeftShoulder1  -1.34205 13.1408 -6.03644
LeftArm  24.142 -11.7362 -75.5938
LeftForeArm  -45.3425 -19.7628 -10.2066
LeftHand  0.923745 8.72904 31.1124
RightShoulder  1.3557 2.72521 15.0335
RightArm  -10.6691 -52.5359 10.7288
RightForeArm  -52.449 -1.47853 3.38195
RightHand  -0.317902 -3.46258 -18.7173
LeftUpLeg  -33.7925 -3.05332 25.5014
LeftLeg  30.004 -5.20267 -2.92
LeftFoot  28.5453 9.03677 -25.0291
LeftToes  -2.75829e-010 5.07641e-011 -5.51782e-011
